<svg id="visual" viewBox="0 0 1850 450" width="1850" height="450" xmlns="http://www.w3.org/2000/svg" xmlns:xlink="http://www.w3.org/1999/xlink" version="1.1"><g stroke-width="1" stroke-linejoin="bevel"><path d="M917 227L901 228L851.2 298Z" fill="#02424f" stroke="#02424f"></path><path d="M851.2 298L902 387L917 227Z" fill="#00101c" stroke="#00101c"></path><path d="M902 387L1019.8 316L917 227Z" fill="#053543" stroke="#053543"></path><path d="M887 41L835.2 208L901 228Z" fill="#005d65" stroke="#005d65"></path><path d="M901 228L835.2 208L851.2 298Z" fill="#02424f" stroke="#02424f"></path><path d="M710.4 331L803.2 374L851.2 298Z" fill="#009473" stroke="#009473"></path><path d="M851.2 298L803.2 374L902 387Z" fill="#00101c" stroke="#00101c"></path><path d="M966 450L1057.8 335L1019.8 316Z" fill="#02424f" stroke="#02424f"></path><path d="M1051.8 137L988.8 130L917 227Z" fill="#006b6d" stroke="#006b6d"></path><path d="M813.2 450L966 450L902 387Z" fill="#062836" stroke="#062836"></path><path d="M902 387L966 450L1019.8 316Z" fill="#009473" stroke="#009473"></path><path d="M1051.8 137L917 227L1019.8 316Z" fill="#008674" stroke="#008674"></path><path d="M917 227L988.8 130L901 228Z" fill="#053543" stroke="#053543"></path><path d="M1072.8 450L1092.6 329L1057.8 335Z" fill="#004f5b" stroke="#004f5b"></path><path d="M1057.8 335L1092.6 329L1019.8 316Z" fill="#007872" stroke="#007872"></path><path d="M769.4 79L751.4 200L835.2 208Z" fill="#004f5b" stroke="#004f5b"></path><path d="M835.2 208L751.4 200L851.2 298Z" fill="#009473" stroke="#009473"></path><path d="M747.4 450L813.2 450L803.2 374Z" fill="#053543" stroke="#053543"></path><path d="M803.2 374L813.2 450L902 387Z" fill="#004f5b" stroke="#004f5b"></path><path d="M1106.6 197L1051.8 137L1019.8 316Z" fill="#005d65" stroke="#005d65"></path><path d="M751.4 200L710.4 331L851.2 298Z" fill="#053543" stroke="#053543"></path><path d="M1092.6 329L1106.6 197L1019.8 316Z" fill="#005d65" stroke="#005d65"></path><path d="M966 450L1072.8 450L1057.8 335Z" fill="#009473" stroke="#009473"></path><path d="M710.4 331L747.4 450L803.2 374Z" fill="#005d65" stroke="#005d65"></path><path d="M1092.6 329L1141.6 236L1106.6 197Z" fill="#005d65" stroke="#005d65"></path><path d="M1246.3 397L1141.6 236L1092.6 329Z" fill="#009473" stroke="#009473"></path><path d="M751.4 200L679.4 223L710.4 331Z" fill="#007872" stroke="#007872"></path><path d="M907 0L887 41L988.8 130Z" fill="#053543" stroke="#053543"></path><path d="M988.8 130L887 41L901 228Z" fill="#02424f" stroke="#02424f"></path><path d="M751.4 200L622.7 176L679.4 223Z" fill="#062836" stroke="#062836"></path><path d="M887 41L769.4 79L835.2 208Z" fill="#053543" stroke="#053543"></path><path d="M887 41L775.2 63L769.4 79Z" fill="#062836" stroke="#062836"></path><path d="M769.4 79L622.7 176L751.4 200Z" fill="#008674" stroke="#008674"></path><path d="M679.4 223L633.7 321L710.4 331Z" fill="#053543" stroke="#053543"></path><path d="M710.4 331L649.7 398L747.4 450Z" fill="#062836" stroke="#062836"></path><path d="M633.7 321L649.7 398L710.4 331Z" fill="#053543" stroke="#053543"></path><path d="M1042.8 0L907 0L988.8 130Z" fill="#004f5b" stroke="#004f5b"></path><path d="M887 41L860.2 0L775.2 63Z" fill="#008674" stroke="#008674"></path><path d="M907 0L860.2 0L887 41Z" fill="#062836" stroke="#062836"></path><path d="M649.7 398L662.7 450L747.4 450Z" fill="#061c29" stroke="#061c29"></path><path d="M587.7 58L622.7 176L769.4 79Z" fill="#061c29" stroke="#061c29"></path><path d="M679.4 223L622.7 176L633.7 321Z" fill="#008674" stroke="#008674"></path><path d="M749.4 0L769.4 79L775.2 63Z" fill="#02424f" stroke="#02424f"></path><path d="M1072.8 450L1180.6 450L1092.6 329Z" fill="#00101c" stroke="#00101c"></path><path d="M1090.6 0L1042.8 0L1051.8 137Z" fill="#062836" stroke="#062836"></path><path d="M1051.8 137L1042.8 0L988.8 130Z" fill="#005d65" stroke="#005d65"></path><path d="M1090.6 0L1051.8 137L1151.6 44Z" fill="#009473" stroke="#009473"></path><path d="M1180.6 450L1246.3 397L1092.6 329Z" fill="#02424f" stroke="#02424f"></path><path d="M860.2 0L749.4 0L775.2 63Z" fill="#008674" stroke="#008674"></path><path d="M1151.6 44L1051.8 137L1106.6 197Z" fill="#009473" stroke="#009473"></path><path d="M1151.6 44L1106.6 197L1229.3 90Z" fill="#062836" stroke="#062836"></path><path d="M1251.3 150L1106.6 197L1141.6 236Z" fill="#005d65" stroke="#005d65"></path><path d="M1192.3 450L1246.3 397L1180.6 450Z" fill="#007872" stroke="#007872"></path><path d="M1246.3 397L1270.3 226L1141.6 236Z" fill="#004f5b" stroke="#004f5b"></path><path d="M1270.3 226L1251.3 150L1141.6 236Z" fill="#007872" stroke="#007872"></path><path d="M1251.3 150L1229.3 90L1106.6 197Z" fill="#053543" stroke="#053543"></path><path d="M1151.6 44L1216.3 0L1090.6 0Z" fill="#004f5b" stroke="#004f5b"></path><path d="M531.9 178L535.9 233L622.7 176Z" fill="#009473" stroke="#009473"></path><path d="M622.7 176L535.9 233L633.7 321Z" fill="#061c29" stroke="#061c29"></path><path d="M633.7 321L489.9 308L649.7 398Z" fill="#008674" stroke="#008674"></path><path d="M649.7 398L462.9 450L662.7 450Z" fill="#008674" stroke="#008674"></path><path d="M1270.3 226L1284.1 170L1251.3 150Z" fill="#007872" stroke="#007872"></path><path d="M1251.3 150L1302.1 58L1229.3 90Z" fill="#007872" stroke="#007872"></path><path d="M1353.1 225L1284.1 170L1270.3 226Z" fill="#004f5b" stroke="#004f5b"></path><path d="M749.4 0L642.7 0L769.4 79Z" fill="#004f5b" stroke="#004f5b"></path><path d="M587.7 58L531.9 178L622.7 176Z" fill="#005d65" stroke="#005d65"></path><path d="M642.7 0L587.7 58L769.4 79Z" fill="#00101c" stroke="#00101c"></path><path d="M1302.1 58L1216.3 0L1229.3 90Z" fill="#005d65" stroke="#005d65"></path><path d="M1229.3 90L1216.3 0L1151.6 44Z" fill="#062836" stroke="#062836"></path><path d="M440.1 242L489.9 308L535.9 233Z" fill="#009473" stroke="#009473"></path><path d="M535.9 233L489.9 308L633.7 321Z" fill="#061c29" stroke="#061c29"></path><path d="M509.9 0L541.9 63L587.7 58Z" fill="#007872" stroke="#007872"></path><path d="M587.7 58L541.9 63L531.9 178Z" fill="#00101c" stroke="#00101c"></path><path d="M531.9 178L440.1 242L535.9 233Z" fill="#005d65" stroke="#005d65"></path><path d="M1371.1 450L1342.1 401L1246.3 397Z" fill="#006b6d" stroke="#006b6d"></path><path d="M1246.3 397L1342.1 401L1270.3 226Z" fill="#008674" stroke="#008674"></path><path d="M1342.1 401L1353.1 225L1270.3 226Z" fill="#008674" stroke="#008674"></path><path d="M1284.1 170L1302.1 58L1251.3 150Z" fill="#009473" stroke="#009473"></path><path d="M1432.9 178L1302.1 58L1284.1 170Z" fill="#02424f" stroke="#02424f"></path><path d="M398.1 146L440.1 242L531.9 178Z" fill="#061c29" stroke="#061c29"></path><path d="M397.1 347L462.9 450L489.9 308Z" fill="#061c29" stroke="#061c29"></path><path d="M489.9 308L462.9 450L649.7 398Z" fill="#005d65" stroke="#005d65"></path><path d="M1406.9 366L1395.9 244L1353.1 225Z" fill="#007872" stroke="#007872"></path><path d="M1353.1 225L1432.9 178L1284.1 170Z" fill="#006b6d" stroke="#006b6d"></path><path d="M1192.3 450L1371.1 450L1246.3 397Z" fill="#009473" stroke="#009473"></path><path d="M1342.1 401L1406.9 366L1353.1 225Z" fill="#008674" stroke="#008674"></path><path d="M642.7 0L509.9 0L587.7 58Z" fill="#004f5b" stroke="#004f5b"></path><path d="M541.9 63L398.1 146L531.9 178Z" fill="#007872" stroke="#007872"></path><path d="M1371.1 450L1406.9 366L1342.1 401Z" fill="#02424f" stroke="#02424f"></path><path d="M440.1 242L397.1 347L489.9 308Z" fill="#061c29" stroke="#061c29"></path><path d="M296.3 221L397.1 347L440.1 242Z" fill="#062836" stroke="#062836"></path><path d="M1371.1 450L1418.9 450L1406.9 366Z" fill="#061c29" stroke="#061c29"></path><path d="M1549.7 200L1432.9 178L1395.9 244Z" fill="#061c29" stroke="#061c29"></path><path d="M1514.7 363L1395.9 244L1406.9 366Z" fill="#053543" stroke="#053543"></path><path d="M1395.9 244L1432.9 178L1353.1 225Z" fill="#053543" stroke="#053543"></path><path d="M429.1 0L398.1 146L541.9 63Z" fill="#062836" stroke="#062836"></path><path d="M1432.9 178L1385.1 0L1302.1 58Z" fill="#061c29" stroke="#061c29"></path><path d="M1302.1 58L1385.1 0L1216.3 0Z" fill="#009473" stroke="#009473"></path><path d="M509.9 0L429.1 0L541.9 63Z" fill="#004f5b" stroke="#004f5b"></path><path d="M289.3 321L359.1 450L397.1 347Z" fill="#005d65" stroke="#005d65"></path><path d="M397.1 347L359.1 450L462.9 450Z" fill="#005d65" stroke="#005d65"></path><path d="M361.1 93L360.3 105L398.1 146Z" fill="#006b6d" stroke="#006b6d"></path><path d="M398.1 146L343.3 166L440.1 242Z" fill="#02424f" stroke="#02424f"></path><path d="M360.3 105L343.3 166L398.1 146Z" fill="#053543" stroke="#053543"></path><path d="M429.1 0L361.1 93L398.1 146Z" fill="#005d65" stroke="#005d65"></path><path d="M235.6 38L296.3 221L343.3 166Z" fill="#004f5b" stroke="#004f5b"></path><path d="M1418.9 450L1496.7 450L1406.9 366Z" fill="#00101c" stroke="#00101c"></path><path d="M1496.7 450L1514.7 363L1406.9 366Z" fill="#004f5b" stroke="#004f5b"></path><path d="M1481.9 45L1454.9 0L1385.1 0Z" fill="#007872" stroke="#007872"></path><path d="M1481.9 45L1385.1 0L1432.9 178Z" fill="#008674" stroke="#008674"></path><path d="M1530.7 103L1481.9 45L1432.9 178Z" fill="#005d65" stroke="#005d65"></path><path d="M235.6 38L343.3 166L360.3 105Z" fill="#004f5b" stroke="#004f5b"></path><path d="M343.3 166L296.3 221L440.1 242Z" fill="#053543" stroke="#053543"></path><path d="M296.3 221L289.3 321L397.1 347Z" fill="#02424f" stroke="#02424f"></path><path d="M289.3 321L296.3 450L359.1 450Z" fill="#009473" stroke="#009473"></path><path d="M1585.7 221L1549.7 200L1514.7 363Z" fill="#006b6d" stroke="#006b6d"></path><path d="M1514.7 363L1549.7 200L1395.9 244Z" fill="#062836" stroke="#062836"></path><path d="M361.1 93L235.6 38L360.3 105Z" fill="#008674" stroke="#008674"></path><path d="M429.1 0L337.3 0L361.1 93Z" fill="#061c29" stroke="#061c29"></path><path d="M1549.7 200L1530.7 103L1432.9 178Z" fill="#004f5b" stroke="#004f5b"></path><path d="M1481.9 45L1511.7 0L1454.9 0Z" fill="#007872" stroke="#007872"></path><path d="M1595.4 0L1511.7 0L1530.7 103Z" fill="#02424f" stroke="#02424f"></path><path d="M1530.7 103L1511.7 0L1481.9 45Z" fill="#008674" stroke="#008674"></path><path d="M1601.4 344L1585.7 221L1514.7 363Z" fill="#008674" stroke="#008674"></path><path d="M1549.7 200L1585.7 221L1530.7 103Z" fill="#062836" stroke="#062836"></path><path d="M1496.7 450L1601.4 344L1514.7 363Z" fill="#007872" stroke="#007872"></path><path d="M337.3 0L235.6 38L361.1 93Z" fill="#005d65" stroke="#005d65"></path><path d="M296.3 221L167.6 216L289.3 321Z" fill="#061c29" stroke="#061c29"></path><path d="M289.3 321L166.6 450L296.3 450Z" fill="#005d65" stroke="#005d65"></path><path d="M337.3 0L231.6 0L235.6 38Z" fill="#006b6d" stroke="#006b6d"></path><path d="M1639.4 51L1595.4 0L1530.7 103Z" fill="#006b6d" stroke="#006b6d"></path><path d="M1639.4 51L1530.7 103L1585.7 221Z" fill="#007872" stroke="#007872"></path><path d="M153.6 226L167.6 216L95.8 203Z" fill="#008674" stroke="#008674"></path><path d="M235.6 38L167.6 216L296.3 221Z" fill="#006b6d" stroke="#006b6d"></path><path d="M167.6 216L161.6 309L289.3 321Z" fill="#02424f" stroke="#02424f"></path><path d="M95.8 203L167.6 216L66.8 137Z" fill="#053543" stroke="#053543"></path><path d="M167.6 216L153.6 226L161.6 309Z" fill="#02424f" stroke="#02424f"></path><path d="M1691.4 294L1671.4 207L1585.7 221Z" fill="#004f5b" stroke="#004f5b"></path><path d="M120.8 378L166.6 450L161.6 309Z" fill="#00101c" stroke="#00101c"></path><path d="M161.6 309L166.6 450L289.3 321Z" fill="#005d65" stroke="#005d65"></path><path d="M1671.4 207L1639.4 51L1585.7 221Z" fill="#061c29" stroke="#061c29"></path><path d="M1601.4 344L1691.4 294L1585.7 221Z" fill="#061c29" stroke="#061c29"></path><path d="M1671.4 207L1773.2 166L1639.4 51Z" fill="#005d65" stroke="#005d65"></path><path d="M1735.2 356L1691.4 294L1601.4 344Z" fill="#00101c" stroke="#00101c"></path><path d="M1496.7 450L1682.4 450L1601.4 344Z" fill="#008674" stroke="#008674"></path><path d="M91.8 311L120.8 378L161.6 309Z" fill="#009473" stroke="#009473"></path><path d="M153.6 226L91.8 311L161.6 309Z" fill="#053543" stroke="#053543"></path><path d="M95.8 203L91.8 311L153.6 226Z" fill="#004f5b" stroke="#004f5b"></path><path d="M66.8 137L167.6 216L235.6 38Z" fill="#009473" stroke="#009473"></path><path d="M1682.4 450L1735.2 356L1601.4 344Z" fill="#004f5b" stroke="#004f5b"></path><path d="M1691.4 294L1760.2 291L1671.4 207Z" fill="#007872" stroke="#007872"></path><path d="M1735.2 356L1760.2 291L1691.4 294Z" fill="#053543" stroke="#053543"></path><path d="M231.6 0L112.8 0L235.6 38Z" fill="#004f5b" stroke="#004f5b"></path><path d="M0 315L120.8 378L91.8 311Z" fill="#008674" stroke="#008674"></path><path d="M0 315L75.8 450L120.8 378Z" fill="#006b6d" stroke="#006b6d"></path><path d="M120.8 378L75.8 450L166.6 450Z" fill="#005d65" stroke="#005d65"></path><path d="M112.8 0L66.8 137L235.6 38Z" fill="#02424f" stroke="#02424f"></path><path d="M95.8 203L0 275L91.8 311Z" fill="#008674" stroke="#008674"></path><path d="M1760.2 291L1773.2 166L1671.4 207Z" fill="#053543" stroke="#053543"></path><path d="M1639.4 51L1751.2 0L1595.4 0Z" fill="#009473" stroke="#009473"></path><path d="M1794.2 64L1751.2 0L1639.4 51Z" fill="#008674" stroke="#008674"></path><path d="M1760.2 291L1850 239L1773.2 166Z" fill="#009473" stroke="#009473"></path><path d="M1735.2 356L1850 369L1760.2 291Z" fill="#004f5b" stroke="#004f5b"></path><path d="M1682.4 450L1791.2 450L1735.2 356Z" fill="#007872" stroke="#007872"></path><path d="M1773.2 166L1794.2 64L1639.4 51Z" fill="#061c29" stroke="#061c29"></path><path d="M1850 100L1794.2 64L1773.2 166Z" fill="#02424f" stroke="#02424f"></path><path d="M0 131L95.8 203L66.8 137Z" fill="#004f5b" stroke="#004f5b"></path><path d="M0 131L0 275L95.8 203Z" fill="#007872" stroke="#007872"></path><path d="M0 275L0 315L91.8 311Z" fill="#053543" stroke="#053543"></path><path d="M0 71L0 131L66.8 137Z" fill="#009473" stroke="#009473"></path><path d="M0 315L0 450L75.8 450Z" fill="#007872" stroke="#007872"></path><path d="M1850 369L1850 239L1760.2 291Z" fill="#061c29" stroke="#061c29"></path><path d="M112.8 0L0 71L66.8 137Z" fill="#006b6d" stroke="#006b6d"></path><path d="M1791.2 450L1850 369L1735.2 356Z" fill="#00101c" stroke="#00101c"></path><path d="M1850 239L1850 179L1773.2 166Z" fill="#007872" stroke="#007872"></path><path d="M1791.2 450L1850 450L1850 369Z" fill="#02424f" stroke="#02424f"></path><path d="M1850 179L1850 100L1773.2 166Z" fill="#062836" stroke="#062836"></path><path d="M1794.2 64L1850 0L1751.2 0Z" fill="#008674" stroke="#008674"></path><path d="M112.8 0L0 0L0 71Z" fill="#062836" stroke="#062836"></path><path d="M1850 100L1850 0L1794.2 64Z" fill="#009473" stroke="#009473"></path></g></svg>